<svg width="13" height="16" viewBox="0 0 13 16" fill="none" xmlns="http://www.w3.org/2000/svg">
<path d="M12.5589 5.4325C12.4659 5.5048 10.8341 6.424 10.8341 8.4689C10.8341 10.834 12.91 11.6706 12.972 11.6912C12.9617 11.7428 12.6415 12.8376 11.8772 13.953C11.1956 14.9342 10.4829 15.9153 9.3985 15.9153C8.3141 15.9153 8.0352 15.2853 6.7855 15.2853C5.5668 15.2853 5.133 15.936 4.1415 15.936C3.15 15.936 2.458 15.0271 1.6628 13.9117C0.7436 12.6 0 10.5654 0 8.6341C0 5.5357 2.014 3.8935 3.9969 3.8935C5.0504 3.8935 5.9282 4.5855 6.5892 4.5855C7.2192 4.5855 8.2004 3.8522 9.3984 3.8522C9.8529 3.8523 11.4848 3.8937 12.5589 5.4325ZM8.8305 2.5407C9.3262 1.952 9.6774 1.1361 9.6774 0.3202C9.6774 0.2066 9.6671 0.093 9.6464 0C8.8408 0.031 7.8803 0.537101 7.3019 1.2084C6.8475 1.7248 6.424 2.5407 6.424 3.367C6.424 3.4909 6.4447 3.6149 6.455 3.6562C6.5066 3.6665 6.5893 3.6769 6.6719 3.6769C7.3949 3.6768 8.3037 3.1914 8.8305 2.5407Z" fill="white"/>
</svg>
